<svg width="360" height="208" viewBox="0 0 360 208" fill="none" xmlns="http://www.w3.org/2000/svg">
<rect x="260.496" y="23" width="8" height="8" fill="#F7C900"/>
<rect x="283.496" y="42" width="8" height="8" fill="#F7C900"/>
<rect x="283.496" y="22" width="8" height="8" fill="#F7C900"/>
<rect x="305.496" y="41" width="8" height="8" fill="#F7C900"/>
<rect x="305.496" y="21" width="8" height="8" fill="#F7C900"/>
<rect x="328.494" y="20" width="8" height="8" fill="#F8AFB4"/>
<rect x="126.496" y="95.25" width="8" height="8" fill="#265CAB"/>
<rect x="95.4956" y="96.25" width="8" height="8" fill="#265CAB"/>
<rect x="109.496" y="110.25" width="8" height="8" fill="#265CAB"/>
<rect x="78.4956" y="111.25" width="8" height="8" fill="#265CAB"/>
<rect x="67.4956" y="96.25" width="8" height="8" fill="#265CAB"/>
<rect x="93.4956" y="125.25" width="8" height="8" fill="#265CAB"/>
<rect x="65.4956" y="130.25" width="8" height="8" fill="#265CAB"/>
<rect x="52.4956" y="115.25" width="8" height="8" fill="#265CAB"/>
<rect x="41.4956" y="97.25" width="8" height="8" fill="#265CAB"/>
<rect x="81.4956" y="144.25" width="8" height="8" fill="#265CAB"/>
<rect x="16.4956" y="96.25" width="8" height="8" fill="#265CAB"/>
<rect x="25.4956" y="114.25" width="8" height="8" fill="#265CAB"/>
<rect x="64.4956" y="159.25" width="8" height="8" fill="#265CAB"/>
<rect x="49.4956" y="145.25" width="8" height="8" fill="#265CAB"/>
<rect x="36.4956" y="130.25" width="8" height="8" fill="#265CAB"/>
<rect x="90.5215" y="23.25" width="8" height="8" fill="#9C238F"/>
<rect x="92.4956" y="43.25" width="8" height="8" fill="#9C238F"/>
<rect x="98.4956" y="63.25" width="8" height="8" fill="#9C238F"/>
<rect x="111.496" y="81.25" width="8" height="8" fill="#9C238F"/>
<rect x="83.4956" y="80.25" width="8" height="8" fill="#9C238F"/>
<rect x="73.4956" y="62.25" width="8" height="8" fill="#9C238F"/>
<rect x="69.5044" y="42.25" width="8" height="8" fill="#9C238F"/>
<rect x="68.5215" y="22.25" width="8" height="8" fill="#9C238F"/>
<rect x="49.5044" y="59.25" width="8" height="8" fill="#9C238F"/>
<rect x="57.4956" y="78.25" width="8" height="8" fill="#9C238F"/>
<rect x="46.4956" y="40.25" width="8" height="8" fill="#9C238F"/>
<rect x="45.5044" y="20.25" width="8" height="8" fill="#9C238F"/>
<rect x="26.4956" y="59.25" width="8" height="8" fill="#9C238F"/>
<rect x="33.4956" y="79.25" width="8" height="8" fill="#9C238F"/>
<rect x="23.5215" y="19.25" width="8" height="8" fill="#9C238F"/>
<rect x="9.49561" y="77.25" width="8" height="8" fill="#9C238F"/>
<rect x="3.49561" y="58.25" width="8" height="8" fill="#9C238F"/>
<rect x="0.504395" y="38.25" width="8" height="8" fill="#9C238F"/>
<rect x="0.521484" y="18.25" width="8" height="8" fill="#9C238F"/>
<rect x="23.5044" y="40.25" width="8" height="8" fill="#9C238F"/>
<rect x="145.496" y="105.25" width="8" height="8" fill="#EE4C55"/>
<rect x="165.496" y="110.25" width="8" height="8" fill="#EE4C55"/>
<rect x="126.496" y="121.25" width="8" height="8" fill="#EE4C55"/>
<rect x="145.496" y="129.25" width="8" height="8" fill="#EE4C55"/>
<rect x="166.496" y="132.25" width="8" height="8" fill="#EE4C55"/>
<rect x="109.496" y="136.25" width="8" height="8" fill="#EE4C55"/>
<rect x="127.496" y="145.25" width="8" height="8" fill="#EE4C55"/>
<rect x="146.496" y="151.25" width="8" height="8" fill="#EE4C55"/>
<rect x="98.4956" y="156.25" width="8" height="8" fill="#EE4C55"/>
<rect x="116.496" y="164.25" width="8" height="8" fill="#EE4C55"/>
<rect x="135.496" y="172.25" width="8" height="8" fill="#EE4C55"/>
<rect x="80.4956" y="171.25" width="8" height="8" fill="#EE4C55"/>
<rect x="98.4956" y="181.25" width="8" height="8" fill="#EE4C55"/>
<rect x="116.496" y="189.25" width="8" height="8" fill="#EE4C55"/>
<rect x="186.496" y="110.718" width="8" height="8" fill="#A8CD33"/>
<rect x="186.496" y="132.718" width="8" height="8" fill="#A8CD33"/>
<rect x="206.496" y="128.718" width="8" height="8" fill="#A8CD33"/>
<rect x="166.496" y="154.718" width="8" height="8" fill="#A8CD33"/>
<rect x="186.496" y="154.718" width="8" height="8" fill="#A8CD33"/>
<rect x="206.496" y="151.718" width="8" height="8" fill="#A8CD33"/>
<rect x="155.496" y="175.718" width="8" height="8" fill="#A8CD33"/>
<rect x="176.496" y="176.718" width="8" height="8" fill="#A8CD33"/>
<rect x="197.496" y="176.25" width="8" height="8" fill="#A8CD33"/>
<rect x="136.496" y="194.718" width="8" height="8" fill="#A8CD33"/>
<rect x="155.496" y="198.718" width="8" height="8" fill="#A8CD33"/>
<rect x="176.496" y="199.25" width="8" height="8" fill="#A8CD33"/>
<rect x="197.496" y="198.718" width="8" height="8" fill="#A8CD33"/>
<rect x="207.496" y="105" width="8" height="8" fill="#6C6D70"/>
<rect x="226.496" y="95" width="8" height="8" fill="#6C6D70"/>
<rect x="242.496" y="111" width="8" height="8" fill="#6C6D70"/>
<rect x="225.496" y="121" width="8" height="8" fill="#6C6D70"/>
<rect x="243.496" y="137" width="8" height="8" fill="#6C6D70"/>
<rect x="225.496" y="146" width="8" height="8" fill="#6C6D70"/>
<rect x="236.496" y="165" width="8" height="8" fill="#6C6D70"/>
<rect x="217.496" y="172" width="8" height="8" fill="#6C6D70"/>
<rect x="254.496" y="156" width="8" height="8" fill="#6C6D70"/>
<rect x="235.496" y="189" width="8" height="8" fill="#6C6D70"/>
<rect x="217.496" y="194" width="8" height="8" fill="#6C6D70"/>
<rect x="254.496" y="181" width="8" height="8" fill="#6C6D70"/>
<rect x="271.496" y="171" width="8" height="8" fill="#6C6D70"/>
<rect x="241.496" y="81" width="8" height="8" fill="#3A96DA"/>
<rect x="257.496" y="96" width="8" height="8" fill="#3A96DA"/>
<rect x="259.496" y="125" width="8" height="8" fill="#3A96DA"/>
<rect x="273.496" y="112" width="8" height="8" fill="#3A96DA"/>
<rect x="271.496" y="144" width="8" height="8" fill="#3A96DA"/>
<rect x="286.496" y="130" width="8" height="8" fill="#3A96DA"/>
<rect x="299.496" y="115" width="8" height="8" fill="#3A96DA"/>
<rect x="287.496" y="159" width="8" height="8" fill="#3A96DA"/>
<rect x="303.496" y="146" width="8" height="8" fill="#3A96DA"/>
<rect x="316.496" y="130" width="8" height="8" fill="#3A96DA"/>
<rect x="326.496" y="114" width="8" height="8" fill="#3A96DA"/>
<rect x="252.496" y="64" width="8" height="8" fill="#FF9153"/>
<rect x="259.496" y="44" width="8" height="8" fill="#FF9153"/>
<rect x="269.496" y="80" width="8" height="8" fill="#FF9153"/>
<rect x="277.496" y="62" width="8" height="8" fill="#FF9153"/>
<rect x="285.496" y="96" width="8" height="8" fill="#FF9153"/>
<rect x="295.496" y="78" width="8" height="8" fill="#FF9153"/>
<rect x="301.496" y="60" width="8" height="8" fill="#FF9153"/>
<rect x="311.496" y="98" width="8" height="8" fill="#FF9153"/>
<rect x="319.496" y="79" width="8" height="8" fill="#FF9153"/>
<rect x="335.496" y="96" width="8" height="8" fill="#FF9153"/>
<rect x="344" y="77.5" width="7" height="7" stroke="black"/>
<rect x="324.496" y="60" width="8" height="8" fill="#D9D9D9"/>
<rect x="328.496" y="40" width="8" height="8" fill="#D9D9D9"/>
<rect x="348.496" y="59" width="8" height="8" fill="#D9D9D9"/>
<rect x="351.496" y="39" width="8" height="8" fill="#D9D9D9"/>
<rect x="351.494" y="18" width="8" height="8" fill="#F8AFB4"/>
<rect width="75" height="78.8115" rx="37.5" transform="matrix(1 2.61851e-07 2.62687e-07 -1 144.056 79.5615)" fill="#F2F2F2"/>
<path d="M164.778 29.1103V51.6558H161.366V32.5229H161.234L155.84 36.0457V32.7872L161.465 29.1103H164.778ZM178.726 52.0301C176.987 52.0227 175.501 51.564 174.268 50.654C173.035 49.7439 172.092 48.4193 171.439 46.6799C170.785 44.9406 170.459 42.8453 170.459 40.394C170.459 37.9502 170.785 35.8622 171.439 34.1302C172.099 32.3982 173.046 31.0772 174.279 30.1671C175.519 29.2571 177.002 28.8021 178.726 28.8021C180.451 28.8021 181.93 29.2608 183.163 30.1781C184.396 31.0882 185.339 32.4092 185.992 34.1412C186.652 35.8659 186.983 37.9502 186.983 40.394C186.983 42.8526 186.656 44.9516 186.003 46.6909C185.35 48.4229 184.407 49.7476 183.174 50.665C181.941 51.575 180.458 52.0301 178.726 52.0301ZM178.726 49.0908C180.253 49.0908 181.445 48.3459 182.304 46.856C183.17 45.3662 183.603 43.2122 183.603 40.394C183.603 38.5226 183.405 36.941 183.009 35.6494C182.62 34.3504 182.058 33.3669 181.324 32.6991C180.598 32.0239 179.732 31.6863 178.726 31.6863C177.207 31.6863 176.014 32.4349 175.148 33.932C174.282 35.4292 173.846 37.5832 173.838 40.394C173.838 42.2728 174.033 43.8617 174.422 45.1607C174.818 46.4524 175.38 47.4322 176.106 48.1C176.833 48.7605 177.706 49.0908 178.726 49.0908ZM198.506 51.964C196.928 51.964 195.534 51.6925 194.323 51.1494C193.119 50.6063 192.176 49.8577 191.493 48.9036C190.811 47.9496 190.473 46.8634 190.481 45.6451C190.473 44.691 190.668 43.814 191.064 43.0141C191.468 42.2068 192.014 41.5353 192.704 40.9995C193.394 40.4564 194.165 40.1115 195.016 39.9647V39.8326C193.893 39.5611 192.994 38.9593 192.319 38.0272C191.644 37.0952 191.31 36.0237 191.317 34.8127C191.31 33.6605 191.614 32.633 192.231 31.7303C192.855 30.8203 193.71 30.1047 194.796 29.5837C195.882 29.0626 197.119 28.8021 198.506 28.8021C199.878 28.8021 201.104 29.0663 202.183 29.5947C203.269 30.1158 204.124 30.8313 204.748 31.7413C205.371 32.644 205.687 33.6678 205.694 34.8127C205.687 36.0237 205.342 37.0952 204.66 38.0272C203.977 38.9593 203.089 39.5611 201.996 39.8326V39.9647C202.84 40.1115 203.599 40.4564 204.274 40.9995C204.957 41.5353 205.5 42.2068 205.904 43.0141C206.315 43.814 206.524 44.691 206.531 45.6451C206.524 46.8634 206.179 47.9496 205.496 48.9036C204.814 49.8577 203.867 50.6063 202.656 51.1494C201.452 51.6925 200.069 51.964 198.506 51.964ZM198.506 49.1788C199.438 49.1788 200.245 49.0247 200.928 48.7165C201.61 48.4009 202.139 47.9642 202.513 47.4065C202.887 46.8414 203.078 46.1809 203.085 45.4249C203.078 44.6397 202.873 43.9461 202.469 43.3443C202.073 42.7425 201.533 42.2692 200.851 41.9242C200.168 41.5793 199.386 41.4068 198.506 41.4068C197.618 41.4068 196.829 41.5793 196.139 41.9242C195.449 42.2692 194.906 42.7425 194.51 43.3443C194.113 43.9461 193.919 44.6397 193.926 45.4249C193.919 46.1809 194.099 46.8414 194.466 47.4065C194.84 47.9642 195.372 48.4009 196.062 48.7165C196.752 49.0247 197.566 49.1788 198.506 49.1788ZM198.506 38.6877C199.254 38.6877 199.919 38.5373 200.498 38.2364C201.078 37.9355 201.533 37.5171 201.863 36.9814C202.201 36.4457 202.373 35.8182 202.381 35.0989C202.373 34.3944 202.205 33.7779 201.874 33.2495C201.552 32.7211 201.1 32.3138 200.52 32.0276C199.941 31.734 199.269 31.5872 198.506 31.5872C197.728 31.5872 197.045 31.734 196.458 32.0276C195.878 32.3138 195.427 32.7211 195.104 33.2495C194.781 33.7779 194.623 34.3944 194.631 35.0989C194.623 35.8182 194.785 36.4457 195.115 36.9814C195.445 37.5171 195.9 37.9355 196.48 38.2364C197.067 38.5373 197.743 38.6877 198.506 38.6877Z" fill="#1A3E58"/>
</svg>
